<svg width="24" height="24" viewBox="0 0 24 24" fill="none" xmlns="http://www.w3.org/2000/svg">
<path d="M16.7071 15.7071C17.0976 15.3166 17.0976 14.6834 16.7071 14.2929C16.3166 13.9024 15.6834 13.9024 15.2929 14.2929L16.7071 15.7071ZM12 19L11.2929 19.7071L12 20.4142L12.7071 19.7071L12 19ZM8.70711 14.2929C8.31658 13.9024 7.68342 13.9024 7.29289 14.2929C6.90237 14.6834 6.90237 15.3166 7.29289 15.7071L8.70711 14.2929ZM13 5C13 4.44772 12.5523 4 12 4C11.4477 4 11 4.44772 11 5H13ZM15.2929 14.2929L11.2929 18.2929L12.7071 19.7071L16.7071 15.7071L15.2929 14.2929ZM12.7071 18.2929L8.70711 14.2929L7.29289 15.7071L11.2929 19.7071L12.7071 18.2929ZM13 19V5H11V19H13Z" fill="currentColor"/>
</svg>
