<svg width="24" height="24" viewBox="0 0 24 24" fill="none" xmlns="http://www.w3.org/2000/svg">
<path d="M16.7071 8.29289C17.0976 8.68342 17.0976 9.31658 16.7071 9.70711C16.3166 10.0976 15.6834 10.0976 15.2929 9.70711L16.7071 8.29289ZM12 5L11.2929 4.29289L12 3.58579L12.7071 4.29289L12 5ZM8.70711 9.70711C8.31658 10.0976 7.68342 10.0976 7.29289 9.70711C6.90237 9.31658 6.90237 8.68342 7.29289 8.29289L8.70711 9.70711ZM13 19C13 19.5523 12.5523 20 12 20C11.4477 20 11 19.5523 11 19H13ZM15.2929 9.70711L11.2929 5.70711L12.7071 4.29289L16.7071 8.29289L15.2929 9.70711ZM12.7071 5.70711L8.70711 9.70711L7.29289 8.29289L11.2929 4.29289L12.7071 5.70711ZM13 5V19H11V5H13Z" fill="currentColor"/>
</svg>
