<svg width="24" height="24" viewBox="0 0 24 24" fill="none" xmlns="http://www.w3.org/2000/svg">
<path d="M15.7071 7.29289C15.3166 6.90237 14.6834 6.90237 14.2929 7.29289C13.9024 7.68342 13.9024 8.31658 14.2929 8.70711L15.7071 7.29289ZM19 12L19.7071 12.7071L20.4142 12L19.7071 11.2929L19 12ZM14.2929 15.2929C13.9024 15.6834 13.9024 16.3166 14.2929 16.7071C14.6834 17.0976 15.3166 17.0976 15.7071 16.7071L14.2929 15.2929ZM5.00002 11C4.44773 11 4.00002 11.4477 4.00002 12C4.00002 12.5523 4.44773 13 5.00002 13V11ZM14.2929 8.70711L18.2929 12.7071L19.7071 11.2929L15.7071 7.29289L14.2929 8.70711ZM18.2929 11.2929L14.2929 15.2929L15.7071 16.7071L19.7071 12.7071L18.2929 11.2929ZM19 11H5.00002V13H19V11Z" fill="currentColor"/>
</svg>
