<svg width="24" height="24" viewBox="0 0 24 24" fill="none" xmlns="http://www.w3.org/2000/svg">
<path d="M17 3C17 2.44772 16.5523 2 16 2C15.4477 2 15 2.44772 15 3H17ZM15 6C15 6.55228 15.4477 7 16 7C16.5523 7 17 6.55228 17 6H15ZM9 3C9 2.44772 8.55228 2 8 2C7.44772 2 7 2.44772 7 3H9ZM7 6C7 6.55228 7.44772 7 8 7C8.55228 7 9 6.55228 9 6H7ZM7 6H17V4H7V6ZM20 9V17H22V9H20ZM17 20H7V22H17V20ZM4 17V9H2V17H4ZM7 20C5.34315 20 4 18.6569 4 17H2C2 19.7614 4.23858 22 7 22V20ZM20 17C20 18.6569 18.6569 20 17 20V22C19.7614 22 22 19.7614 22 17H20ZM17 6C18.6569 6 20 7.34315 20 9H22C22 6.23858 19.7614 4 17 4V6ZM7 4C4.23858 4 2 6.23858 2 9H4C4 7.34315 5.34315 6 7 6V4ZM15 3V6H17V3H15ZM7 3V6H9V3H7Z" fill="#121127"/>
<rect x="8" y="13" width="8" height="3" rx="1.5" stroke="#121127" stroke-width="2"/>
</svg>
