<svg width="16" height="16" viewBox="0 0 16 16" fill="none" xmlns="http://www.w3.org/2000/svg">
<path fill-rule="evenodd" clip-rule="evenodd" d="M3.19961 3.99999C2.77526 3.99999 2.3683 4.16856 2.06824 4.46862C1.76818 4.76868 1.59961 5.17565 1.59961 5.59999V12C1.59961 12.4243 1.76818 12.8313 2.06824 13.1314C2.3683 13.4314 2.77526 13.6 3.19961 13.6H12.7996C13.224 13.6 13.6309 13.4314 13.931 13.1314C14.231 12.8313 14.3996 12.4243 14.3996 12V5.59999C14.3996 5.17565 14.231 4.76868 13.931 4.46862C13.6309 4.16856 13.224 3.99999 12.7996 3.99999H11.5308C11.3187 3.99995 11.1152 3.91563 10.9652 3.76559L10.0684 2.86879C9.76842 2.56871 9.36152 2.40008 8.93721 2.39999H7.06201C6.6377 2.40008 6.2308 2.56871 5.93081 2.86879L5.03401 3.76559C4.88402 3.91563 4.68057 3.99995 4.46841 3.99999H3.19961ZM7.99961 11.2C8.31478 11.2 8.62687 11.1379 8.91805 11.0173C9.20923 10.8967 9.47381 10.7199 9.69667 10.4971C9.91953 10.2742 10.0963 10.0096 10.2169 9.71843C10.3375 9.42725 10.3996 9.11517 10.3996 8.79999C10.3996 8.48482 10.3375 8.17274 10.2169 7.88155C10.0963 7.59037 9.91953 7.3258 9.69667 7.10294C9.47381 6.88008 9.20923 6.70329 8.91805 6.58268C8.62687 6.46207 8.31478 6.39999 7.99961 6.39999C7.36309 6.39999 6.75264 6.65285 6.30255 7.10294C5.85247 7.55303 5.59961 8.16348 5.59961 8.79999C5.59961 9.43651 5.85247 10.047 6.30255 10.4971C6.75264 10.9471 7.36309 11.2 7.99961 11.2Z" fill="#9D9CAF"/>
</svg>
