<svg width="64" height="64" viewBox="0 0 64 64" fill="none" xmlns="http://www.w3.org/2000/svg">
<path d="M32 53.3334C45.2533 53.3334 56 43.7814 56 32.0001C56 20.2187 45.2533 10.6667 32 10.6667C18.7467 10.6667 8 20.2187 8 32.0001C8 36.1974 9.36533 40.1121 11.72 43.4134L8 53.3334L20.6533 50.8027C24.1994 52.4821 28.0764 53.3468 32 53.3334Z" fill="#E1E1E6"/>
<path d="M21.3333 32.0001H21.36M32 32.0001H32.0267M42.6667 32.0001H42.6933M56 32.0001C56 43.7814 45.2533 53.3334 32 53.3334C28.0764 53.3468 24.1994 52.4821 20.6533 50.8027L8 53.3334L11.72 43.4134C9.36533 40.1121 8 36.1974 8 32.0001C8 20.2187 18.7467 10.6667 32 10.6667C45.2533 10.6667 56 20.2187 56 32.0001Z" stroke="white" stroke-width="3" stroke-linecap="round" stroke-linejoin="round"/>
</svg>
