<svg width="136" height="140" viewBox="0 0 136 140" fill="none" xmlns="http://www.w3.org/2000/svg">
<path d="M129.856 23.8618H119.692C118.567 23.8618 117.495 24.3348 116.737 25.1651L31.9442 118.053C29.6004 120.621 31.422 124.75 34.8984 124.75H129.856C132.618 124.75 134.856 122.511 134.856 119.75V28.8618C134.856 26.1004 132.618 23.8618 129.856 23.8618Z" fill="#E1F5FF"/>
<path fill-rule="evenodd" clip-rule="evenodd" d="M103.918 20.4489H79.3664C77.2289 20.4489 75.1477 19.764 73.4279 18.4946L62.1912 10.2008C60.4714 8.93148 58.3901 8.24658 56.2526 8.24658H10.5C4.97715 8.24658 0.5 12.7237 0.5 18.2466V107.853C0.5 113.376 4.97716 117.853 10.5 117.853H14.8629L19.4344 112.853H10.5C7.73858 112.853 5.5 110.615 5.5 107.853V18.2466C5.5 15.4852 7.73858 13.2466 10.5 13.2466H56.2526C57.3214 13.2466 58.362 13.589 59.2219 14.2237L70.4587 22.5175C73.0383 24.4215 76.1602 25.4489 79.3664 25.4489H99.347L103.918 20.4489ZM116.889 25.4489L121.46 20.4489H124.857C130.38 20.4489 134.857 24.926 134.857 30.4489V107.853C134.857 113.376 130.38 117.853 124.857 117.853H32.4048L36.9763 112.853H124.857C127.618 112.853 129.857 110.615 129.857 107.853V30.4489C129.857 27.6875 127.618 25.4489 124.857 25.4489H116.889Z" fill="#D1D1DB"/>
<path fill-rule="evenodd" clip-rule="evenodd" d="M130.413 1.06279C131.289 1.86336 131.349 3.22219 130.549 4.09782L7.97786 138.16C7.17728 139.035 5.81845 139.096 4.94283 138.296C4.0672 137.495 4.00636 136.136 4.80693 135.261L127.378 1.19869C128.178 0.32306 129.537 0.262217 130.413 1.06279Z" fill="#D1D1DB"/>
</svg>
