<svg width="24" height="25" viewBox="0 0 24 25" fill="none" xmlns="http://www.w3.org/2000/svg">
<path d="M14 10.5H18.764C19.1049 10.5 19.4401 10.5871 19.7378 10.7531C20.0355 10.9191 20.2859 11.1584 20.4651 11.4484C20.6444 11.7383 20.7465 12.0692 20.7619 12.4098C20.7773 12.7503 20.7054 13.0891 20.553 13.394L17.053 20.394C16.8869 20.7265 16.6314 21.0061 16.3152 21.2014C15.999 21.3968 15.6347 21.5002 15.263 21.5H11.246C11.083 21.5 10.92 21.48 10.761 21.44L7 20.5M14 10.5V5.5C14 4.96957 13.7893 4.46086 13.4142 4.08579C13.0391 3.71071 12.5304 3.5 12 3.5H11.905C11.405 3.5 11 3.905 11 4.405C11 5.119 10.789 5.817 10.392 6.411L7 11.5V20.5M14 10.5H12M7 20.5H5C4.46957 20.5 3.96086 20.2893 3.58579 19.9142C3.21071 19.5391 3 19.0304 3 18.5V12.5C3 11.9696 3.21071 11.4609 3.58579 11.0858C3.96086 10.7107 4.46957 10.5 5 10.5H7.5" stroke="#9D9CAF" stroke-width="2" stroke-linecap="round" stroke-linejoin="round"/>
</svg>
