<svg width="24" height="24" viewBox="0 0 24 24" fill="none" xmlns="http://www.w3.org/2000/svg">
<path fill-rule="evenodd" clip-rule="evenodd" d="M18 7C18 10.3137 15.3137 13 12 13C8.68629 13 6 10.3137 6 7C6 3.68629 8.68629 1 12 1C15.3137 1 18 3.68629 18 7ZM16 7C16 9.20914 14.2091 11 12 11C9.79086 11 8 9.20914 8 7C8 4.79086 9.79086 3 12 3C14.2091 3 16 4.79086 16 7Z" fill="#121127"/>
<path fill-rule="evenodd" clip-rule="evenodd" d="M12.0001 14C9.06495 14 6.9487 14.6088 5.43064 15.5217C3.90653 16.4383 3.05047 17.6224 2.57773 18.6581C2.17925 19.5311 2.36061 20.4207 2.89004 21.0546C3.39471 21.6587 4.1794 22 5.00005 22H19C19.8207 22 20.6053 21.6588 21.11 21.0546C21.6394 20.4208 21.8208 19.5311 21.4223 18.6582C20.9496 17.6225 20.0936 16.4383 18.5695 15.5218C17.0515 14.6088 14.9352 14 12.0001 14ZM4.39715 19.4886C4.7253 18.7697 5.3281 17.9172 6.46135 17.2357C7.60065 16.5506 9.34028 16 12.0001 16C14.6599 16 16.3995 16.5506 17.5388 17.2357C18.672 17.9172 19.2748 18.7697 19.6029 19.4886C19.6417 19.5735 19.64 19.6245 19.6361 19.6506C19.6316 19.6803 19.617 19.7222 19.5751 19.7724C19.4849 19.8804 19.2839 20 19 20H5.00005C4.71612 20 4.51516 19.8804 4.425 19.7724C4.38302 19.7222 4.36842 19.6803 4.36398 19.6506C4.36009 19.6245 4.3584 19.5735 4.39715 19.4886Z" fill="#121127"/>
</svg>
