<svg width="24" height="24" viewBox="0 0 24 24" fill="none" xmlns="http://www.w3.org/2000/svg">
<path d="M8.29291 7.29289C8.68343 6.90237 9.3166 6.90237 9.70712 7.29289C10.0976 7.68342 10.0976 8.31658 9.70712 8.70711L8.29291 7.29289ZM5.00002 12L4.29291 12.7071L3.5858 12L4.29291 11.2929L5.00002 12ZM9.70712 15.2929C10.0976 15.6834 10.0976 16.3166 9.70712 16.7071C9.3166 17.0976 8.68343 17.0976 8.29291 16.7071L9.70712 15.2929ZM19 11C19.5523 11 20 11.4477 20 12C20 12.5523 19.5523 13 19 13V11ZM9.70712 8.70711L5.70712 12.7071L4.29291 11.2929L8.29291 7.29289L9.70712 8.70711ZM5.70712 11.2929L9.70712 15.2929L8.29291 16.7071L4.29291 12.7071L5.70712 11.2929ZM5.00002 11H19V13H5.00002V11Z" fill="currentColor"/>
</svg>
