<svg width="24" height="24" viewBox="0 0 24 24" fill="none" xmlns="http://www.w3.org/2000/svg">
<path d="M9 17V16C8.44772 16 8 16.4477 8 17H9ZM15 17H16C16 16.4477 15.5523 16 15 16V17ZM9 18H15V16H9V18ZM14 17V18H16V17H14ZM10 18V17H8V18H10ZM12 20C10.8954 20 10 19.1046 10 18H8C8 20.2091 9.79086 22 12 22V20ZM14 18C14 19.1046 13.1046 20 12 20V22C14.2091 22 16 20.2091 16 18H14Z" fill="#121127"/>
<path d="M4.29289 14.7071L3.58579 14L3.58579 14L4.29289 14.7071ZM4.80372 14.1963L5.51082 14.9034L5.51082 14.9034L4.80372 14.1963ZM19.1963 14.1962L19.9034 13.4891L19.9034 13.4891L19.1963 14.1962ZM19.7071 14.7071L20.4142 14L20.4142 14L19.7071 14.7071ZM12 2.99995L12 3.99995L12 2.99995ZM19 16H5V18H19V16ZM5 16V15.4142H3V16H5ZM5 15.4142L5.51082 14.9034L4.09661 13.4891L3.58579 14L5 15.4142ZM6 13.7224V9.99995H4V13.7224H6ZM18 9.99995V13.7224H20V9.99995H18ZM18.4892 14.9033L19 15.4142L20.4142 14L19.9034 13.4891L18.4892 14.9033ZM19 15.4142V16H21V15.4142H19ZM19 15.4142L19 15.4142H21C21 14.8838 20.7893 14.3751 20.4142 14L19 15.4142ZM18 13.7224C18 14.1653 18.176 14.5901 18.4892 14.9033L19.9034 13.4891C19.9653 13.551 20 13.6349 20 13.7224H18ZM20 9.99995C20 5.58167 16.4183 1.99994 12 1.99995L12 3.99995C15.3137 3.99995 18 6.68624 18 9.99995H20ZM6 9.99995C6 6.68625 8.68628 3.99996 12 3.99995L12 1.99995C7.58171 1.99997 4 5.58168 4 9.99995H6ZM5.51082 14.9034C5.82404 14.5901 6 14.1653 6 13.7224H4C4 13.6349 4.03475 13.551 4.09661 13.4891L5.51082 14.9034ZM5 15.4142H5L3.58579 14C3.21071 14.375 3 14.8838 3 15.4142H5ZM5 16H3C3 17.1045 3.89543 18 5 18V16ZM19 18C20.1046 18 21 17.1045 21 16H19V18Z" fill="#121127"/>
</svg>
