<svg width="4" height="20" viewBox="0 0 4 20" fill="none" xmlns="http://www.w3.org/2000/svg">
<path d="M1 18C1 17.4477 1.44772 17 2 17C2.55228 17 3 17.4477 3 18C3 18.5523 2.55228 19 2 19C1.44772 19 1 18.5523 1 18Z" stroke="#9D9CAF" stroke-width="2" stroke-linecap="round" stroke-linejoin="round"/>
<path d="M1 10C1 9.44772 1.44772 9 2 9C2.55228 9 3 9.44772 3 10C3 10.5523 2.55228 11 2 11C1.44772 11 1 10.5523 1 10Z" stroke="#9D9CAF" stroke-width="2" stroke-linecap="round" stroke-linejoin="round"/>
<path d="M1 2C1 1.44772 1.44772 1 2 1C2.55228 1 3 1.44772 3 2C3 2.55228 2.55228 3 2 3C1.44772 3 1 2.55228 1 2Z" stroke="#9D9CAF" stroke-width="2" stroke-linecap="round" stroke-linejoin="round"/>
</svg>
