<svg width="28" height="28" viewBox="0 0 28 28" fill="none" xmlns="http://www.w3.org/2000/svg">
<path d="M12.833 23.3332C12.833 22.6888 13.3553 22.1665 13.9997 22.1665C14.644 22.1665 15.1663 22.6888 15.1663 23.3332C15.1663 23.9775 14.644 24.4998 13.9997 24.4998C13.3553 24.4998 12.833 23.9775 12.833 23.3332Z" stroke="#14181F" stroke-width="2" stroke-linecap="round" stroke-linejoin="round"/>
<path d="M12.833 14.0002C12.833 13.3558 13.3553 12.8335 13.9997 12.8335C14.644 12.8335 15.1663 13.3558 15.1663 14.0002C15.1663 14.6445 14.644 15.1668 13.9997 15.1668C13.3553 15.1668 12.833 14.6445 12.833 14.0002Z" stroke="#14181F" stroke-width="2" stroke-linecap="round" stroke-linejoin="round"/>
<path d="M12.833 4.66667C12.833 4.02233 13.3553 3.5 13.9997 3.5C14.644 3.5 15.1663 4.02233 15.1663 4.66667C15.1663 5.311 14.644 5.83333 13.9997 5.83333C13.3553 5.83333 12.833 5.311 12.833 4.66667Z" stroke="#14181F" stroke-width="2" stroke-linecap="round" stroke-linejoin="round"/>
</svg>
