<svg width="56" height="56" viewBox="0 0 56 56" fill="none" xmlns="http://www.w3.org/2000/svg">
<path d="M34.6 22.933C36.3503 21.1827 37.3337 18.8087 37.3337 16.3333C37.3337 13.858 36.3503 11.484 34.6 9.73367C32.8497 7.98333 30.4757 7 28.0003 7C25.525 7 23.151 7.98333 21.4007 9.73367C19.6503 11.484 18.667 13.858 18.667 16.3333C18.667 18.8087 19.6503 21.1827 21.4007 22.933C23.151 24.6833 25.525 25.6667 28.0003 25.6667C30.4757 25.6667 32.8497 24.6833 34.6 22.933Z" fill="white"/>
<path d="M16.4509 37.4506C19.514 34.3875 23.6685 32.6667 28.0003 32.6667C32.3322 32.6667 36.4866 34.3875 39.5497 37.4506C42.6128 40.5137 44.3337 44.6681 44.3337 49H11.667C11.667 44.6681 13.3878 40.5137 16.4509 37.4506Z" fill="white"/>
<path d="M34.6 22.933C36.3503 21.1827 37.3337 18.8087 37.3337 16.3333C37.3337 13.858 36.3503 11.484 34.6 9.73367C32.8497 7.98333 30.4757 7 28.0003 7C25.525 7 23.151 7.98333 21.4007 9.73367C19.6503 11.484 18.667 13.858 18.667 16.3333C18.667 18.8087 19.6503 21.1827 21.4007 22.933C23.151 24.6833 25.525 25.6667 28.0003 25.6667C30.4757 25.6667 32.8497 24.6833 34.6 22.933Z" stroke="white" stroke-width="2" stroke-linecap="round" stroke-linejoin="round"/>
<path d="M16.4509 37.4506C19.514 34.3875 23.6685 32.6667 28.0003 32.6667C32.3322 32.6667 36.4866 34.3875 39.5497 37.4506C42.6128 40.5137 44.3337 44.6681 44.3337 49H11.667C11.667 44.6681 13.3878 40.5137 16.4509 37.4506Z" stroke="white" stroke-width="2" stroke-linecap="round" stroke-linejoin="round"/>
</svg>
