<svg width="20" height="15" viewBox="0 0 20 15" fill="none" xmlns="http://www.w3.org/2000/svg">
<circle cx="10" cy="7.5" r="3" stroke="#9D9CAF" stroke-width="2"/>
<path d="M1.58437 8.29012L0.805647 8.91749L1.58437 8.29012ZM18.4169 6.89287L17.6342 7.51529L18.4169 6.89287ZM17.636 7.65827C16.0427 9.62296 13.8149 12.5 10 12.5V14.5C14.9102 14.5 17.7115 10.7404 19.1894 8.91801L17.636 7.65827ZM10 12.5C6.2206 12.5 3.89024 9.55831 2.36309 7.66274L0.805647 8.91749C2.22666 10.6813 5.12645 14.5 10 14.5V12.5ZM2.36498 7.51105C3.90616 5.56059 6.23165 2.5 10 2.5V0.5C5.10755 0.5 2.20125 4.49233 0.795734 6.2711L2.36498 7.51105ZM10 2.5C13.7965 2.5 16.0394 5.50991 17.6342 7.51529L19.1995 6.27046C17.7496 4.44718 14.9215 0.5 10 0.5V2.5ZM2.36309 7.66274C2.35251 7.64961 2.3409 7.62515 2.34083 7.58963C2.34075 7.55389 2.35248 7.52687 2.36498 7.51105L0.795734 6.2711C0.189011 7.03895 0.186075 8.14845 0.805647 8.91749L2.36309 7.66274ZM19.1894 8.91801C19.8128 8.14929 19.8103 7.03843 19.1995 6.27046L17.6342 7.51529C17.6464 7.53063 17.6573 7.55606 17.6572 7.58938C17.6572 7.62247 17.6463 7.64547 17.636 7.65827L19.1894 8.91801Z" fill="#9D9CAF"/>
</svg>
